PathFileType	4	(X/Y/Z)	E:\3-PhD\Data\MocapData\ElaboratedData\009\pre\dynamicElaborations\RunN2\RunN2.trc
DataRate	CameraRate	NumFrames	NumMarkers	Units	OrigDataRate	DataStartFrame
200	200	4	54	mm	200	388
Frame#	Time	FHD			LBHD			RBHD			C7			T10			CLAV			LSHO			LUUPA			LMUPA			LDUPA			LLEP			LMEP			LRAD			LUL			LRFIN			RSHO			RUPA1			RMUPA			RDUPA			RLEP			RMEP			RRAD			RUL			RUFIN			RASI			USACR			LSACR			RSACR			LTHI1			LTHI2			LTHI3			LTHI4			LTIB1			LTIB2			LTIB3			LTIB4			LLMAL			LHEE			LMT1			LMT2			RTHI			RTHI2			RTHI3			RTHI4			RLFC			RTIB1			RTIB2			RTIB3			RTIB4			RLMAL			RHEE			RMT1			RMT2			RMT5		
		X1	Y1	Z1	X2	Y2	Z2	X3	Y3	Z3	X4	Y4	Z4	X5	Y5	Z5	X6	Y6	Z6	X7	Y7	Z7	X8	Y8	Z8	X9	Y9	Z9	X10	Y10	Z10	X11	Y11	Z11	X12	Y12	Z12	X13	Y13	Z13	X14	Y14	Z14	X15	Y15	Z15	X16	Y16	Z16	X17	Y17	Z17	X18	Y18	Z18	X19	Y19	Z19	X20	Y20	Z20	X21	Y21	Z21	X22	Y22	Z22	X23	Y23	Z23	X24	Y24	Z24	X25	Y25	Z25	X26	Y26	Z26	X27	Y27	Z27	X28	Y28	Z28	X29	Y29	Z29	X30	Y30	Z30	X31	Y31	Z31	X32	Y32	Z32	X33	Y33	Z33	X34	Y34	Z34	X35	Y35	Z35	X36	Y36	Z36	X37	Y37	Z37	X38	Y38	Z38	X39	Y39	Z39	X40	Y40	Z40	X41	Y41	Z41	X42	Y42	Z42	X43	Y43	Z43	X44	Y44	Z44	X45	Y45	Z45	X46	Y46	Z46	X47	Y47	Z47	X48	Y48	Z48	X49	Y49	Z49	X50	Y50	Z50	X51	Y51	Z51	X52	Y52	Z52	X53	Y53	Z53	X54	Y54	Z54	

388	1.935000	-817.101901	1543.716237	140.627338	-1012.967285	1531.660186	95.435208	-946.051187	1539.364715	201.673359	-1060.378757	1410.753856	129.209935	-1228.375842	1105.589387	129.504179	-959.002982	1288.731863	128.069493	-969.213203	1349.153477	-10.632139	-1077.428185	1246.172066	-149.268193	-1066.410841	1198.988439	-146.859150	-1116.819717	1197.978006	-179.597197	-1196.656052	1112.851383	-223.904607	-1243.912020	1104.557395	-162.607047	-1096.627777	878.662818	-153.753029	-1138.444510	849.476048	-204.784093	-1045.518192	826.931674	-168.385202	-1024.664520	1358.545347	285.176982	-1170.942437	1311.590031	376.530440	-1162.900916	1272.726723	400.432977	-1224.478229	1286.680826	407.809407	-1318.886464	1212.261982	476.495516	-1337.684951	1176.362961	415.558621	-1143.581867	1010.901263	510.365634	-1197.463214	991.792236	554.894696	-1098.019722	998.714071	571.578359	-1067.990894	916.952150	226.249796	-1257.912136	1019.769030	153.007641	-1272.727697	986.393447	130.610354	-1259.167512	990.899650	187.095103	-1193.322298	626.268899	-4.418286	-1161.745206	548.197280	6.913453	-1115.186314	551.431090	15.343345	-1190.858681	497.127391	27.681320	-1302.279579	324.118915	150.358841	-1363.359470	373.927649	106.389280	-1356.665195	342.516154	134.484963	-1424.061568	348.558473	188.503428	-1573.555005	403.087599	203.600395	-1608.414087	486.783493	250.067875	-1589.326240	268.487026	299.046535	-1598.379841	261.822108	252.790211	-1029.026626	743.437864	364.935111	-973.418821	709.488115	364.204268	-948.066205	714.013099	341.880894	-967.603561	625.949026	388.203263	-908.680080	535.511364	402.386392	-821.841435	336.630079	444.049797	-858.977053	273.408813	523.236993	-819.927902	271.503356	497.944772	-806.732822	217.989983	487.951600	-833.061651	134.097254	567.955640	-904.656836	75.707213	551.995061	-685.412988	75.487959	491.588412	-677.139715	79.014482	530.953369	-705.374687	57.787476	591.361028	
389	1.940000	-789.772768	1538.758737	132.708536	-985.991500	1525.857345	89.600182	-917.964696	1533.797196	195.209645	-1032.535136	1406.000973	124.666913	-1202.739996	1101.675249	128.168254	-932.265902	1283.112044	121.393478	-944.784893	1342.813632	-17.966616	-1058.137142	1238.794828	-152.938987	-1048.169567	1191.420490	-149.093215	-1099.039614	1190.545465	-181.213341	-1181.616000	1107.673956	-222.622570	-1227.288771	1102.245308	-160.236665	-1099.402186	864.730308	-157.822241	-1144.041768	840.121801	-209.074189	-1053.370827	808.538045	-173.936866	-993.850797	1352.557225	280.225268	-1136.527530	1303.641300	377.580992	-1126.993731	1264.391090	400.389334	-1188.246549	1277.798675	411.424170	-1278.728149	1201.622116	482.496221	-1299.977229	1166.148677	422.433723	-1099.661616	1002.291202	506.674325	-1150.833711	982.301360	553.180954	-1051.130538	990.312378	565.549589	-1042.009182	913.891092	223.966858	-1232.655188	1015.092266	151.592589	-1247.658318	981.699813	129.329672	-1233.562579	986.335135	185.723427	-1163.267427	622.484819	-10.315098	-1129.048869	545.215900	-1.503415	-1082.385470	549.655648	5.631272	-1155.994294	492.915097	19.040581	-1260.434559	322.497349	140.484312	-1321.523654	372.757424	96.865384	-1314.889129	341.457545	125.166915	-1381.541698	348.724366	180.047909	-1529.924487	405.161524	197.054496	-1563.921680	489.234213	243.826915	-1545.188690	270.922671	293.091611	-1554.819105	264.130256	246.917414	-1004.270651	738.915969	362.782161	-949.071490	704.481778	362.727829	-923.188804	709.216000	341.182201	-944.214110	620.869465	386.329643	-886.704731	530.012003	401.886898	-806.680113	327.561180	444.397739	-847.055926	266.722162	523.695030	-807.894922	263.003992	498.877440	-797.221813	208.861541	489.339948	-827.537686	127.437874	570.262957	-900.649429	70.567530	555.642477	-681.452446	68.981442	494.373485	-673.061891	72.032549	533.624789	-701.032789	51.118168	594.430341	
390	1.945000	-762.704701	1533.664326	124.253728	-959.234182	1519.933241	83.329544	-890.097761	1528.135383	188.307750	-1004.949483	1401.091720	119.838329	-1177.209420	1097.472541	126.822579	-905.805830	1277.311440	114.435550	-920.742705	1336.235440	-25.512173	-1039.137524	1230.952317	-156.600183	-1030.051435	1183.487708	-151.298540	-1081.367961	1182.609757	-182.840648	-1166.369823	1102.197800	-221.321960	-1210.269105	1099.271012	-157.849464	-1102.612741	852.185778	-161.599553	-1149.644196	832.404041	-212.979303	-1062.119209	792.040670	-179.254511	-963.047105	1346.410213	275.002562	-1101.334331	1295.201715	378.607787	-1090.346020	1255.505516	400.113202	-1150.960918	1268.328229	415.095970	-1237.173050	1190.170123	488.337565	-1261.068637	1155.185586	429.428133	-1054.790122	993.152364	502.197682	-1102.999803	972.275905	550.757990	-1003.251047	981.465906	558.423608	-1016.178675	910.689479	221.596226	-1207.540113	1010.250540	150.214549	-1222.707321	976.783668	128.189943	-1208.033227	981.686891	184.462910	-1133.164027	618.911241	-16.370716	-1096.149795	542.661917	-10.238020	-1049.454313	548.445865	-4.401322	-1120.745088	489.119536	9.997296	-1217.842617	321.035425	130.183633	-1279.162601	371.667220	87.139219	-1272.429472	340.417549	115.549862	-1338.248201	348.456715	171.393255	-1485.643462	406.168962	190.729139	-1519.016538	490.355178	238.124233	-1499.742286	271.944370	286.979839	-1510.014360	265.142071	240.882958	-980.091579	734.038755	361.068118	-925.331711	699.093831	361.820462	-898.850601	703.982708	341.162862	-921.505296	615.352960	384.812226	-865.220455	524.223462	401.762213	-792.539416	318.459942	444.895186	-836.315224	260.263344	524.219980	-797.133898	254.565823	499.867930	-789.190599	199.880710	490.867730	-823.690380	121.179763	572.629591	-898.136008	65.587637	559.516906	-679.169293	64.047664	497.021995	-670.564133	66.556430	536.104702	-697.999483	45.675879	597.334558	
391	1.950000	-735.900649	1528.494394	115.286643	-932.715609	1513.969638	76.640314	-862.458594	1522.453161	180.975369	-977.661272	1396.087970	114.703169	-1151.813345	1093.058452	125.373391	-879.635198	1271.389289	107.209620	-897.068060	1329.486202	-33.249373	-1020.371664	1222.779340	-160.256223	-1012.020158	1175.300251	-153.501246	-1063.758142	1174.329004	-184.524359	-1150.911023	1096.537318	-220.060312	-1192.932035	1095.752638	-155.506204	-1106.008058	841.188220	-165.073349	-1155.041080	826.408580	-216.425104	-1071.488257	777.615093	-184.317417	-932.293402	1340.188413	269.484045	-1065.289914	1286.323373	379.405386	-1052.942097	1246.151926	399.449370	-1112.552609	1258.353411	418.573809	-1194.183970	1177.998707	493.759034	-1220.896645	1143.540308	436.331612	-1009.020534	983.644255	496.849361	-1054.036292	961.876019	547.519185	-954.468898	972.347643	550.110481	-990.567741	907.336229	219.112916	-1182.607071	1005.322184	148.776661	-1197.895467	971.710242	127.101424	-1182.612736	977.041747	183.223540	-1102.969049	615.709695	-22.616811	-1063.059464	540.710941	-19.281574	-1016.418519	547.966920	-14.707942	-1085.151647	485.945956	0.541194	-1174.609905	319.840546	119.469401	-1236.381455	370.740195	77.241295	-1229.380271	339.473376	105.654315	-1294.279962	347.802236	162.562410	-1440.848624	406.106951	184.630210	-1473.850060	490.128129	232.970935	-1453.088202	271.537722	280.665427	-1464.072166	264.852616	234.666307	-956.577207	728.863209	359.802514	-902.287112	693.374411	361.484772	-875.149713	698.337700	341.803017	-899.583662	609.445176	383.642510	-844.268545	518.198184	401.982148	-779.344606	309.566705	445.551938	-826.616579	254.216301	524.802322	-787.519139	246.417736	500.886327	-782.422568	191.321566	492.487528	-821.208461	115.528943	574.930158	-896.790750	60.942206	563.388099	-678.198160	60.620851	499.454596	-669.306318	62.568456	538.318907	-696.013561	41.503275	599.974627	
